<svg xmlns="http://www.w3.org/2000/svg" width="18.135" height="14.114" viewBox="0 0 18.135 14.114">
  <path id="_icon_arrow_" data-name="&lt;icon&gt;&lt;arrow&gt;" d="M.483,5.631,5.893.464A1.569,1.569,0,0,1,7.047,0,1.577,1.577,0,0,1,8.2.464l5.43,5.167a1.523,1.523,0,0,1,0,2.226,1.7,1.7,0,0,1-2.329,0l-2.6-2.478v11.18a1.613,1.613,0,0,1-1.649,1.577,1.613,1.613,0,0,1-1.649-1.577V5.379l-2.6,2.483a1.7,1.7,0,0,1-2.329,0A1.529,1.529,0,0,1,.483,5.631Z" transform="translate(18.135) rotate(90)" fill="#fff"/>
</svg>
